<mxfile host="65bd71144e">
    <diagram id="CV9EeO_oewcYIm2sXBF6" name="Page-1">
        <mxGraphModel dx="2035" dy="685" grid="0" gridSize="10" guides="1" tooltips="1" connect="1" arrows="1" fold="1" page="1" pageScale="1" pageWidth="827" pageHeight="583" background="#ffffff" math="0" shadow="0">
            <root>
                <mxCell id="0"/>
                <mxCell id="1" parent="0"/>
                <mxCell id="2" value="Terminal" style="whiteSpace=wrap;html=1;fillColor=#f5f5f5;fontColor=#333333;strokeColor=#1844c9;strokeWidth=2;" vertex="1" parent="1">
                    <mxGeometry y="480" width="120" height="40" as="geometry"/>
                </mxCell>
                <mxCell id="3" value="Terminal" style="whiteSpace=wrap;html=1;fillColor=#f5f5f5;fontColor=#333333;strokeColor=#1844c9;strokeWidth=2;" vertex="1" parent="1">
                    <mxGeometry y="960" width="120" height="40" as="geometry"/>
                </mxCell>
                <mxCell id="4" value="Main program (in app.rb)" style="whiteSpace=wrap;html=1;fillColor=#f5f5f5;fontColor=#333333;strokeColor=#1844c9;strokeWidth=2;" vertex="1" parent="1">
                    <mxGeometry x="200" y="960" width="120" height="40" as="geometry"/>
                </mxCell>
                <mxCell id="5" style="edgeStyle=none;html=1;entryX=0.5;entryY=0;entryDx=0;entryDy=0;endArrow=baseDash;endFill=0;strokeColor=#0000FF;" edge="1" parent="1" source="6" target="7">
                    <mxGeometry relative="1" as="geometry">
                        <mxPoint x="260" y="910" as="targetPoint"/>
                    </mxGeometry>
                </mxCell>
                <mxCell id="6" value="___ class (in lib/_____rb." style="whiteSpace=wrap;html=1;fillColor=#f5f5f5;fontColor=#333333;strokeColor=#1844c9;strokeWidth=2;" vertex="1" parent="1">
                    <mxGeometry x="440" y="480" width="120" height="40" as="geometry"/>
                </mxCell>
                <mxCell id="7" value="___ class (in lib/_____rb." style="whiteSpace=wrap;html=1;fillColor=#f5f5f5;fontColor=#333333;strokeColor=#1844c9;strokeWidth=2;" vertex="1" parent="1">
                    <mxGeometry x="440" y="960" width="120" height="40" as="geometry"/>
                </mxCell>
                <mxCell id="8" style="edgeStyle=none;html=1;entryX=0.5;entryY=0;entryDx=0;entryDy=0;endArrow=baseDash;endFill=0;strokeColor=#0000FF;" edge="1" parent="1" source="9" target="10">
                    <mxGeometry relative="1" as="geometry">
                        <mxPoint x="310.5" y="920" as="targetPoint"/>
                    </mxGeometry>
                </mxCell>
                <mxCell id="9" value="___ class (in lib/_____rb." style="whiteSpace=wrap;html=1;fillColor=#f5f5f5;fontColor=#333333;strokeColor=#1844c9;strokeWidth=2;" vertex="1" parent="1">
                    <mxGeometry x="640.5" y="480" width="120" height="40" as="geometry"/>
                </mxCell>
                <mxCell id="10" value="___ class (in lib/_____rb." style="whiteSpace=wrap;html=1;fillColor=#f5f5f5;fontColor=#333333;strokeColor=#1844c9;strokeWidth=2;" vertex="1" parent="1">
                    <mxGeometry x="640.5" y="960" width="120" height="40" as="geometry"/>
                </mxCell>
                <mxCell id="11" style="edgeStyle=none;html=1;entryX=0.5;entryY=0;entryDx=0;entryDy=0;endArrow=baseDash;endFill=0;strokeColor=#0000FF;" edge="1" parent="1" source="12" target="13">
                    <mxGeometry relative="1" as="geometry">
                        <mxPoint x="845" y="890" as="targetPoint"/>
                    </mxGeometry>
                </mxCell>
                <mxCell id="12" value="Postgres database" style="whiteSpace=wrap;html=1;fillColor=#f5f5f5;fontColor=#333333;strokeColor=#1844c9;strokeWidth=2;" vertex="1" parent="1">
                    <mxGeometry x="815" y="480" width="120" height="40" as="geometry"/>
                </mxCell>
                <mxCell id="13" value="Postgres database" style="whiteSpace=wrap;html=1;fillColor=#f5f5f5;fontColor=#333333;strokeColor=#1844c9;strokeWidth=2;" vertex="1" parent="1">
                    <mxGeometry x="815" y="960" width="120" height="40" as="geometry"/>
                </mxCell>
                <mxCell id="14" style="edgeStyle=none;html=1;entryX=0.5;entryY=0;entryDx=0;entryDy=0;fontSize=12;fontColor=#F0F0F0;endArrow=baseDash;endFill=0;strokeColor=#0000FF;" edge="1" parent="1" source="15" target="4">
                    <mxGeometry relative="1" as="geometry">
                        <Array as="points">
                            <mxPoint x="260" y="860"/>
                        </Array>
                    </mxGeometry>
                </mxCell>
                <mxCell id="15" value="Main program (in app.rb)" style="whiteSpace=wrap;html=1;fontSize=12;fontColor=#333333;rounded=0;fillColor=#f5f5f5;strokeColor=#1844c9;strokeWidth=2;" vertex="1" parent="1">
                    <mxGeometry x="200" y="480" width="120" height="40" as="geometry"/>
                </mxCell>
                <mxCell id="16" value="" style="edgeStyle=none;orthogonalLoop=1;jettySize=auto;html=1;fontSize=12;fontColor=#F0F0F0;entryX=0.5;entryY=0;entryDx=0;entryDy=0;endArrow=baseDash;endFill=0;strokeColor=#0000FF;" edge="1" parent="1" target="3">
                    <mxGeometry width="80" relative="1" as="geometry">
                        <mxPoint x="59.41000000000008" y="520" as="sourcePoint"/>
                        <mxPoint x="59.41" y="820" as="targetPoint"/>
                        <Array as="points"/>
                    </mxGeometry>
                </mxCell>
                <mxCell id="17" value="" style="edgeStyle=none;orthogonalLoop=1;jettySize=auto;html=1;fontSize=12;fontColor=#F0F0F0;endArrow=classic;endFill=1;strokeColor=#c12fa6;" edge="1" parent="1">
                    <mxGeometry x="-0.0588" y="20" width="80" relative="1" as="geometry">
                        <mxPoint x="59.99999999999977" y="560" as="sourcePoint"/>
                        <mxPoint x="260" y="560" as="targetPoint"/>
                        <Array as="points"/>
                        <mxPoint as="offset"/>
                    </mxGeometry>
                </mxCell>
                <mxCell id="18" value="&lt;span style=&quot;font-size: 12px;&quot;&gt;Runs &quot;ruby ____&quot;&lt;/span&gt;" style="edgeLabel;html=1;align=center;verticalAlign=middle;resizable=0;points=[];labelBackgroundColor=#FFFFFF;fontColor=#000000;" vertex="1" connectable="0" parent="17">
                    <mxGeometry x="-0.0975" relative="1" as="geometry">
                        <mxPoint y="-17" as="offset"/>
                    </mxGeometry>
                </mxCell>
                <mxCell id="19" value="" style="edgeStyle=none;orthogonalLoop=1;jettySize=auto;html=1;fontSize=12;fontColor=#F0F0F0;endArrow=classic;endFill=1;strokeColor=#c12fa6;" edge="1" parent="1">
                    <mxGeometry width="80" relative="1" as="geometry">
                        <mxPoint x="260" y="940" as="sourcePoint"/>
                        <mxPoint x="59.99999999999977" y="940" as="targetPoint"/>
                        <Array as="points"/>
                    </mxGeometry>
                </mxCell>
                <mxCell id="20" value="Prints list of ____ to terminal" style="edgeLabel;html=1;align=center;verticalAlign=middle;resizable=0;points=[];fontSize=12;fontColor=#000000;labelBackgroundColor=#FFFFFF;" vertex="1" connectable="0" parent="19">
                    <mxGeometry x="0.3017" y="-3.99" relative="1" as="geometry">
                        <mxPoint x="27" y="-12" as="offset"/>
                    </mxGeometry>
                </mxCell>
                <mxCell id="21" value="" style="edgeStyle=none;orthogonalLoop=1;jettySize=auto;html=1;fontSize=12;fontColor=#F0F0F0;endArrow=classic;endFill=1;strokeColor=#c12fa6;" edge="1" parent="1">
                    <mxGeometry width="80" relative="1" as="geometry">
                        <mxPoint x="260" y="590" as="sourcePoint"/>
                        <mxPoint x="500" y="590" as="targetPoint"/>
                        <Array as="points"/>
                    </mxGeometry>
                </mxCell>
                <mxCell id="22" value="Opens connection to tadabase by calling ___ on ___ method" style="edgeLabel;html=1;align=center;verticalAlign=middle;resizable=0;points=[];fontSize=12;fontColor=#000000;labelBackgroundColor=#FFFFFF;" vertex="1" connectable="0" parent="21">
                    <mxGeometry x="-0.3312" y="-1" relative="1" as="geometry">
                        <mxPoint x="60" y="-14" as="offset"/>
                    </mxGeometry>
                </mxCell>
                <mxCell id="23" value="" style="edgeStyle=none;orthogonalLoop=1;jettySize=auto;html=1;fontSize=12;fontColor=#F0F0F0;endArrow=classic;endFill=1;strokeColor=#c12fa6;" edge="1" parent="1">
                    <mxGeometry width="80" relative="1" as="geometry">
                        <mxPoint x="260" y="660" as="sourcePoint"/>
                        <mxPoint x="500" y="660" as="targetPoint"/>
                        <Array as="points"/>
                    </mxGeometry>
                </mxCell>
                <mxCell id="24" value="Calls ___ method on" style="edgeLabel;html=1;align=center;verticalAlign=middle;resizable=0;points=[];fontSize=12;fontColor=#000000;labelBackgroundColor=#FFFFFF;" vertex="1" connectable="0" parent="23">
                    <mxGeometry x="0.3522" y="-1" relative="1" as="geometry">
                        <mxPoint x="-42" y="-11" as="offset"/>
                    </mxGeometry>
                </mxCell>
                <mxCell id="25" value="" style="edgeStyle=none;orthogonalLoop=1;jettySize=auto;html=1;fontSize=12;fontColor=#F0F0F0;endArrow=classic;endFill=1;strokeColor=#c12fa6;" edge="1" parent="1">
                    <mxGeometry width="80" relative="1" as="geometry">
                        <mxPoint x="500" y="920" as="sourcePoint"/>
                        <mxPoint x="260" y="920" as="targetPoint"/>
                        <Array as="points"/>
                    </mxGeometry>
                </mxCell>
                <mxCell id="26" value="Returns ____ of ___ objects" style="edgeLabel;html=1;align=center;verticalAlign=middle;resizable=0;points=[];fontSize=12;fontColor=#000000;labelBackgroundColor=#FFFFFF;" vertex="1" connectable="0" parent="25">
                    <mxGeometry x="0.0154" y="-2" relative="1" as="geometry">
                        <mxPoint x="1" y="-11" as="offset"/>
                    </mxGeometry>
                </mxCell>
                <mxCell id="27" value="" style="edgeStyle=none;orthogonalLoop=1;jettySize=auto;html=1;fontSize=12;fontColor=#F0F0F0;endArrow=classic;endFill=1;strokeColor=#c12fa6;" edge="1" parent="1">
                    <mxGeometry width="80" relative="1" as="geometry">
                        <mxPoint x="500" y="700" as="sourcePoint"/>
                        <mxPoint x="700" y="700" as="targetPoint"/>
                        <Array as="points">
                            <mxPoint x="580" y="700"/>
                        </Array>
                    </mxGeometry>
                </mxCell>
                <mxCell id="28" value="Sends SQL query by calling ___ method on ____" style="edgeLabel;html=1;align=center;verticalAlign=middle;resizable=0;points=[];fontSize=12;fontColor=#000000;labelBackgroundColor=#FFFFFF;" vertex="1" connectable="0" parent="27">
                    <mxGeometry x="-0.3537" y="-1" relative="1" as="geometry">
                        <mxPoint x="45" y="-13" as="offset"/>
                    </mxGeometry>
                </mxCell>
                <mxCell id="29" value="" style="edgeStyle=none;orthogonalLoop=1;jettySize=auto;html=1;fontSize=12;fontColor=#F0F0F0;endArrow=classic;endFill=1;strokeColor=#c12fa6;" edge="1" parent="1">
                    <mxGeometry width="80" relative="1" as="geometry">
                        <mxPoint x="700" y="810" as="sourcePoint"/>
                        <mxPoint x="500" y="810" as="targetPoint"/>
                        <Array as="points"/>
                    </mxGeometry>
                </mxCell>
                <mxCell id="30" value="Returns an ____ of ___, one for each row of the ____ table" style="edgeLabel;html=1;align=center;verticalAlign=middle;resizable=0;points=[];fontSize=12;fontColor=#000000;labelBackgroundColor=#FFFFFF;" vertex="1" connectable="0" parent="29">
                    <mxGeometry x="-0.24" relative="1" as="geometry">
                        <mxPoint x="-24" y="-14" as="offset"/>
                    </mxGeometry>
                </mxCell>
                <mxCell id="31" value="" style="edgeStyle=none;orthogonalLoop=1;jettySize=auto;html=1;strokeColor=#c12fa6;" edge="1" parent="1">
                    <mxGeometry width="80" relative="1" as="geometry">
                        <mxPoint x="700" y="730" as="sourcePoint"/>
                        <mxPoint x="880" y="730" as="targetPoint"/>
                        <Array as="points"/>
                    </mxGeometry>
                </mxCell>
                <mxCell id="32" value="Sends query to database via the open database connection" style="edgeLabel;html=1;align=center;verticalAlign=middle;resizable=0;points=[];fontColor=#000000;labelBackgroundColor=#FFFFFF;" vertex="1" connectable="0" parent="31">
                    <mxGeometry x="-0.3028" y="-2" relative="1" as="geometry">
                        <mxPoint x="18" y="-15" as="offset"/>
                    </mxGeometry>
                </mxCell>
                <mxCell id="33" value="" style="edgeStyle=none;orthogonalLoop=1;jettySize=auto;html=1;strokeColor=#c12fa6;" edge="1" parent="1">
                    <mxGeometry width="80" relative="1" as="geometry">
                        <mxPoint x="880" y="780" as="sourcePoint"/>
                        <mxPoint x="700" y="780" as="targetPoint"/>
                        <Array as="points"/>
                    </mxGeometry>
                </mxCell>
                <mxCell id="34" value="&lt;span style=&quot;color: rgba(0, 0, 0, 0); font-family: monospace; font-size: 0px; text-align: start; background-color: rgb(42, 37, 47);&quot;&gt;%3CmxGraphModel%3E%3Croot%3E%3CmxCell%20id%3D%220%22%2F%3E%3CmxCell%20id%3D%221%22%20parent%3D%220%22%2F%3E%3CmxCell%20id%3D%222%22%20value%3D%22Returns%20an%20____%20of%20___%2C%20one%20for%20each%20row%20of%20the%20____%20table%22%20style%3D%22edgeLabel%3Bhtml%3D1%3Balign%3Dcenter%3BverticalAlign%3Dmiddle%3Bresizable%3D0%3Bpoints%3D%5B%5D%3BfontSize%3D12%3BfontColor%3D%23F0F0F0%3B%22%20vertex%3D%221%22%20connectable%3D%220%22%20parent%3D%221%22%3E%3CmxGeometry%20x%3D%22599.75%22%20y%3D%22786%22%20as%3D%22geometry%22%2F%3E%3C%2FmxCell%3E%3C%2Froot%3E%3C%2FmxGraphModel%3E&lt;/span&gt;" style="edgeLabel;html=1;align=center;verticalAlign=middle;resizable=0;points=[];" vertex="1" connectable="0" parent="33">
                    <mxGeometry x="0.2889" y="-2" relative="1" as="geometry">
                        <mxPoint as="offset"/>
                    </mxGeometry>
                </mxCell>
                <mxCell id="35" value="&lt;span style=&quot;font-size: 12px;&quot;&gt;Returns an ____ of ___, one for each row of the ____ table&lt;/span&gt;&lt;br&gt;ext" style="edgeLabel;html=1;align=center;verticalAlign=middle;resizable=0;points=[];fontColor=#000000;labelBackgroundColor=#FFFFFF;" vertex="1" connectable="0" parent="33">
                    <mxGeometry x="0.1083" y="-2" relative="1" as="geometry">
                        <mxPoint x="10" y="-18" as="offset"/>
                    </mxGeometry>
                </mxCell>
                <mxCell id="36" value="" style="edgeStyle=none;orthogonalLoop=1;jettySize=auto;html=1;rounded=1;shadow=0;strokeColor=#c12fa6;" edge="1" parent="1">
                    <mxGeometry width="80" relative="1" as="geometry">
                        <mxPoint x="500" y="859" as="sourcePoint"/>
                        <mxPoint x="510" y="889" as="targetPoint"/>
                        <Array as="points">
                            <mxPoint x="530" y="859"/>
                            <mxPoint x="550" y="869"/>
                            <mxPoint x="540" y="889"/>
                        </Array>
                    </mxGeometry>
                </mxCell>
                <mxCell id="37" value="Opens database connection using PG and stores the connection&amp;nbsp;" style="edgeLabel;html=1;align=center;verticalAlign=middle;resizable=0;points=[];shadow=0;fontColor=#000000;labelBackgroundColor=#FFFFFF;" vertex="1" connectable="0" parent="36">
                    <mxGeometry x="-0.6849" y="-4" relative="1" as="geometry">
                        <mxPoint y="-14" as="offset"/>
                    </mxGeometry>
                </mxCell>
                <mxCell id="38" value="" style="edgeStyle=none;orthogonalLoop=1;jettySize=auto;html=1;rounded=1;strokeColor=#c12fa6;" edge="1" parent="1">
                    <mxGeometry width="80" relative="1" as="geometry">
                        <mxPoint x="710" y="630" as="sourcePoint"/>
                        <mxPoint x="720" y="660" as="targetPoint"/>
                        <Array as="points">
                            <mxPoint x="740" y="630"/>
                            <mxPoint x="760" y="640"/>
                            <mxPoint x="750" y="660"/>
                        </Array>
                    </mxGeometry>
                </mxCell>
                <mxCell id="39" value="Opens database connection using PG and stores the connection&amp;nbsp;" style="edgeLabel;html=1;align=center;verticalAlign=middle;resizable=0;points=[];fontColor=#000000;labelBackgroundColor=#FFFFFF;" vertex="1" connectable="0" parent="38">
                    <mxGeometry x="-0.6849" y="-4" relative="1" as="geometry">
                        <mxPoint y="-14" as="offset"/>
                    </mxGeometry>
                </mxCell>
            </root>
        </mxGraphModel>
    </diagram>
</mxfile>